<?xml version="1.0" encoding="UTF-8" standalone="no"?>
<!DOCTYPE svg PUBLIC "-//W3C//DTD SVG 1.1//EN"
 "http://www.w3.org/Graphics/SVG/1.1/DTD/svg11.dtd">
<!-- Generated by graphviz version 2.40.1 (20161225.0304)
 -->
<!-- Title: dependencies Pages: 1 -->
<svg width="786pt" height="360pt"
 viewBox="0.00 0.00 786.00 360.00" xmlns="http://www.w3.org/2000/svg" xmlns:xlink="http://www.w3.org/1999/xlink">
<g id="graph0" class="graph" transform="scale(1 1) rotate(0) translate(4 356)">
<title>dependencies</title>
<polygon fill="#ffffff" stroke="transparent" points="-4,4 -4,-356 782,-356 782,4 -4,4"/>
<text text-anchor="start" x="368.0091" y="-42.4" font-family="sans-serif" font-weight="bold" font-size="14.00" fill="#000000">Legend</text>
<polygon fill="#ffffb3" stroke="transparent" points="155,-10 155,-30 175,-30 175,-10 155,-10"/>
<text text-anchor="start" x="178.629" y="-15.4" font-family="sans-serif" font-size="14.00" fill="#000000"> &#160;Declarations</text>
<polygon fill="#8dd3c7" stroke="transparent" points="268,-10 268,-30 288,-30 288,-10 268,-10"/>
<text text-anchor="start" x="291.7251" y="-15.4" font-family="sans-serif" font-size="14.00" fill="#000000"> &#160;Module</text>
<polygon fill="#80b1d3" stroke="transparent" points="354,-10 354,-30 374,-30 374,-10 354,-10"/>
<text text-anchor="start" x="377.7812" y="-15.4" font-family="sans-serif" font-size="14.00" fill="#000000"> &#160;Bootstrap</text>
<polygon fill="#fdb462" stroke="transparent" points="451,-10 451,-30 471,-30 471,-10 451,-10"/>
<text text-anchor="start" x="474.6732" y="-15.4" font-family="sans-serif" font-size="14.00" fill="#000000"> &#160;Providers</text>
<polygon fill="#fb8072" stroke="transparent" points="547,-10 547,-30 567,-30 567,-10 547,-10"/>
<text text-anchor="start" x="570.7258" y="-15.4" font-family="sans-serif" font-size="14.00" fill="#000000"> &#160;Exports</text>
<g id="clust1" class="cluster">
<title>cluster_AppModule</title>
<polygon fill="none" stroke="#000000" stroke-dasharray="1,5" points="165,-146 165,-344 708,-344 708,-146 165,-146"/>
</g>
<g id="clust2" class="cluster">
<title>cluster_AppModule_declarations</title>
<polygon fill="none" stroke="#000000" points="578,-154 578,-206 700,-206 700,-154 578,-154"/>
</g>
<g id="clust4" class="cluster">
<title>cluster_AppModule_imports</title>
<polygon fill="none" stroke="#000000" points="291,-154 291,-206 570,-206 570,-154 291,-154"/>
</g>
<g id="clust6" class="cluster">
<title>cluster_AppModule_bootstrap</title>
<polygon fill="none" stroke="#000000" points="365,-284 365,-336 489,-336 489,-284 365,-284"/>
</g>
<g id="clust7" class="cluster">
<title>cluster_AppModule_providers</title>
<polygon fill="none" stroke="#000000" points="173,-154 173,-206 283,-206 283,-154 173,-154"/>
</g>
<g id="clust14" class="cluster">
<title>cluster_EmployeeModule</title>
<polygon fill="none" stroke="#000000" stroke-dasharray="1,5" points="8,-70 8,-138 770,-138 770,-70 8,-70"/>
</g>
<g id="clust15" class="cluster">
<title>cluster_EmployeeModule_declarations</title>
<polygon fill="none" stroke="#000000" points="202,-78 202,-130 762,-130 762,-78 202,-78"/>
</g>
<g id="clust19" class="cluster">
<title>cluster_EmployeeModule_imports</title>
<polygon fill="none" stroke="#000000" points="16,-78 16,-130 194,-130 194,-78 16,-78"/>
</g>
<!-- AppComponent -->
<g id="node1" class="node">
<title>AppComponent</title>
<polygon fill="#ffffb3" stroke="#000000" points="691.9399,-198 586.0601,-198 586.0601,-162 691.9399,-162 691.9399,-198"/>
<text text-anchor="middle" x="639" y="-175.8" font-family="Times,serif" font-size="14.00" fill="#000000">AppComponent</text>
</g>
<!-- AppModule -->
<g id="node2" class="node">
<title>AppModule</title>
<polygon fill="#8dd3c7" stroke="#000000" points="468.6571,-263 465.6571,-267 444.6571,-267 441.6571,-263 385.3429,-263 385.3429,-227 468.6571,-227 468.6571,-263"/>
<text text-anchor="middle" x="427" y="-240.8" font-family="Times,serif" font-size="14.00" fill="#000000">AppModule</text>
</g>
<!-- AppComponent&#45;&gt;AppModule -->
<g id="edge1" class="edge">
<title>AppComponent&#45;&gt;AppModule</title>
<path fill="none" stroke="#000000" d="M639,-198.1061C639,-217.3391 639,-245 639,-245 639,-245 478.8844,-245 478.8844,-245"/>
<polygon fill="#000000" stroke="#000000" points="478.8844,-241.5001 468.8844,-245 478.8843,-248.5001 478.8844,-241.5001"/>
</g>
<!-- AppComponent  -->
<g id="node5" class="node">
<title>AppComponent </title>
<polygon fill="#80b1d3" stroke="#000000" points="481.439,-328 372.561,-328 372.561,-292 481.439,-292 481.439,-328"/>
<text text-anchor="middle" x="427" y="-305.8" font-family="Times,serif" font-size="14.00" fill="#000000">AppComponent </text>
</g>
<!-- AppModule&#45;&gt;AppComponent  -->
<g id="edge4" class="edge">
<title>AppModule&#45;&gt;AppComponent </title>
<path fill="none" stroke="#000000" stroke-dasharray="1,5" d="M427,-263.1061C427,-263.1061 427,-281.991 427,-281.991"/>
<polygon fill="#000000" stroke="#000000" points="423.5001,-281.9909 427,-291.991 430.5001,-281.991 423.5001,-281.9909"/>
</g>
<!-- AppRoutingModule -->
<g id="node3" class="node">
<title>AppRoutingModule</title>
<polygon fill="#8dd3c7" stroke="#000000" points="562.2744,-198 559.2744,-202 538.2744,-202 535.2744,-198 433.7256,-198 433.7256,-162 562.2744,-162 562.2744,-198"/>
<text text-anchor="middle" x="498" y="-175.8" font-family="Times,serif" font-size="14.00" fill="#000000">AppRoutingModule</text>
</g>
<!-- AppRoutingModule&#45;&gt;AppModule -->
<g id="edge2" class="edge">
<title>AppRoutingModule&#45;&gt;AppModule</title>
<path fill="none" stroke="#000000" d="M451.2206,-198.1061C451.2206,-198.1061 451.2206,-216.991 451.2206,-216.991"/>
<polygon fill="#000000" stroke="#000000" points="447.7206,-216.9909 451.2206,-226.991 454.7206,-216.991 447.7206,-216.9909"/>
</g>
<!-- EmployeeModule -->
<g id="node4" class="node">
<title>EmployeeModule</title>
<polygon fill="#8dd3c7" stroke="#000000" points="415.3132,-198 412.3132,-202 391.3132,-202 388.3132,-198 298.6868,-198 298.6868,-162 415.3132,-162 415.3132,-198"/>
<text text-anchor="middle" x="357" y="-175.8" font-family="Times,serif" font-size="14.00" fill="#000000">EmployeeModule</text>
</g>
<!-- EmployeeModule&#45;&gt;AppModule -->
<g id="edge3" class="edge">
<title>EmployeeModule&#45;&gt;AppModule</title>
<path fill="none" stroke="#000000" d="M400.1641,-198.1061C400.1641,-198.1061 400.1641,-216.991 400.1641,-216.991"/>
<polygon fill="#000000" stroke="#000000" points="396.6642,-216.9909 400.1641,-226.991 403.6642,-216.991 396.6642,-216.9909"/>
</g>
<!-- Common -->
<g id="node6" class="node">
<title>Common</title>
<ellipse fill="#fdb462" stroke="#000000" cx="228" cy="-180" rx="46.9728" ry="18"/>
<text text-anchor="middle" x="228" y="-175.8" font-family="Times,serif" font-size="14.00" fill="#000000">Common</text>
</g>
<!-- Common&#45;&gt;AppModule -->
<g id="edge5" class="edge">
<title>Common&#45;&gt;AppModule</title>
<path fill="none" stroke="#000000" d="M228,-198.1061C228,-217.3391 228,-245 228,-245 228,-245 375.2831,-245 375.2831,-245"/>
<polygon fill="#000000" stroke="#000000" points="375.2831,-248.5001 385.2831,-245 375.283,-241.5001 375.2831,-248.5001"/>
</g>
<!-- EmployeeDetailsComponent -->
<g id="node7" class="node">
<title>EmployeeDetailsComponent</title>
<polygon fill="#ffffb3" stroke="#000000" points="753.7478,-122 576.2522,-122 576.2522,-86 753.7478,-86 753.7478,-122"/>
<text text-anchor="middle" x="665" y="-99.8" font-family="Times,serif" font-size="14.00" fill="#000000">EmployeeDetailsComponent</text>
</g>
<!-- EmployeeDetailsComponent&#45;&gt;EmployeeModule -->
<g id="edge6" class="edge">
<title>EmployeeDetailsComponent&#45;&gt;EmployeeModule</title>
<path fill="none" stroke="#000000" d="M581.2034,-122.2434C581.2034,-129.4297 581.2034,-136 581.2034,-136 581.2034,-136 409.4586,-136 409.4586,-136 409.4586,-136 409.4586,-151.8495 409.4586,-151.8495"/>
<polygon fill="#000000" stroke="#000000" points="405.9587,-151.8494 409.4586,-161.8495 412.9587,-151.8495 405.9587,-151.8494"/>
</g>
<!-- EmployeeListComponent -->
<g id="node8" class="node">
<title>EmployeeListComponent</title>
<polygon fill="#ffffb3" stroke="#000000" points="557.8738,-122 398.1262,-122 398.1262,-86 557.8738,-86 557.8738,-122"/>
<text text-anchor="middle" x="478" y="-99.8" font-family="Times,serif" font-size="14.00" fill="#000000">EmployeeListComponent</text>
</g>
<!-- EmployeeListComponent&#45;&gt;EmployeeModule -->
<g id="edge7" class="edge">
<title>EmployeeListComponent&#45;&gt;EmployeeModule</title>
<path fill="none" stroke="#000000" d="M403.7609,-122.0109C403.7609,-122.0109 403.7609,-151.855 403.7609,-151.855"/>
<polygon fill="#000000" stroke="#000000" points="400.261,-151.8549 403.7609,-161.855 407.261,-151.855 400.261,-151.8549"/>
</g>
<!-- EmployeesPageComponent -->
<g id="node9" class="node">
<title>EmployeesPageComponent</title>
<polygon fill="#ffffb3" stroke="#000000" points="380.252,-122 209.748,-122 209.748,-86 380.252,-86 380.252,-122"/>
<text text-anchor="middle" x="295" y="-99.8" font-family="Times,serif" font-size="14.00" fill="#000000">EmployeesPageComponent</text>
</g>
<!-- EmployeesPageComponent&#45;&gt;EmployeeModule -->
<g id="edge8" class="edge">
<title>EmployeesPageComponent&#45;&gt;EmployeeModule</title>
<path fill="none" stroke="#000000" d="M353.1985,-122.0109C353.1985,-122.0109 353.1985,-151.855 353.1985,-151.855"/>
<polygon fill="#000000" stroke="#000000" points="349.6986,-151.8549 353.1985,-161.855 356.6986,-151.855 349.6986,-151.8549"/>
</g>
<!-- EmployeeRoutingModule -->
<g id="node10" class="node">
<title>EmployeeRoutingModule</title>
<polygon fill="#8dd3c7" stroke="#000000" points="185.9312,-122 182.9312,-126 161.9312,-126 158.9312,-122 24.0688,-122 24.0688,-86 185.9312,-86 185.9312,-122"/>
<text text-anchor="middle" x="105" y="-99.8" font-family="Times,serif" font-size="14.00" fill="#000000">EmployeeRoutingModule</text>
</g>
<!-- EmployeeRoutingModule&#45;&gt;EmployeeModule -->
<g id="edge9" class="edge">
<title>EmployeeRoutingModule&#45;&gt;EmployeeModule</title>
<path fill="none" stroke="#000000" d="M102.6491,-122.0439C102.6491,-134.5633 102.6491,-149 102.6491,-149 102.6491,-149 326.021,-149 326.021,-149 326.021,-149 326.021,-151.9672 326.021,-151.9672"/>
<polygon fill="#000000" stroke="#000000" points="322.5211,-151.9671 326.021,-161.9672 329.5211,-151.9672 322.5211,-151.9671"/>
</g>
</g>
</svg>
