<?xml version="1.0" encoding="UTF-8" standalone="no"?>
<!DOCTYPE svg PUBLIC "-//W3C//DTD SVG 1.1//EN"
 "http://www.w3.org/Graphics/SVG/1.1/DTD/svg11.dtd">
<!-- Generated by graphviz version 2.40.1 (20161225.0304)
 -->
<!-- Title: dependencies Pages: 1 -->
<svg width="786pt" height="211pt"
 viewBox="0.00 0.00 786.00 211.00" xmlns="http://www.w3.org/2000/svg" xmlns:xlink="http://www.w3.org/1999/xlink">
<g id="graph0" class="graph" transform="scale(1 1) rotate(0) translate(4 207)">
<title>dependencies</title>
<polygon fill="#ffffff" stroke="transparent" points="-4,4 -4,-207 782,-207 782,4 -4,4"/>
<text text-anchor="start" x="368.0091" y="-42.4" font-family="sans-serif" font-weight="bold" font-size="14.00" fill="#000000">Legend</text>
<polygon fill="#ffffb3" stroke="transparent" points="155,-10 155,-30 175,-30 175,-10 155,-10"/>
<text text-anchor="start" x="178.629" y="-15.4" font-family="sans-serif" font-size="14.00" fill="#000000"> &#160;Declarations</text>
<polygon fill="#8dd3c7" stroke="transparent" points="268,-10 268,-30 288,-30 288,-10 268,-10"/>
<text text-anchor="start" x="291.7251" y="-15.4" font-family="sans-serif" font-size="14.00" fill="#000000"> &#160;Module</text>
<polygon fill="#80b1d3" stroke="transparent" points="354,-10 354,-30 374,-30 374,-10 354,-10"/>
<text text-anchor="start" x="377.7812" y="-15.4" font-family="sans-serif" font-size="14.00" fill="#000000"> &#160;Bootstrap</text>
<polygon fill="#fdb462" stroke="transparent" points="451,-10 451,-30 471,-30 471,-10 451,-10"/>
<text text-anchor="start" x="474.6732" y="-15.4" font-family="sans-serif" font-size="14.00" fill="#000000"> &#160;Providers</text>
<polygon fill="#fb8072" stroke="transparent" points="547,-10 547,-30 567,-30 567,-10 547,-10"/>
<text text-anchor="start" x="570.7258" y="-15.4" font-family="sans-serif" font-size="14.00" fill="#000000"> &#160;Exports</text>
<g id="clust1" class="cluster">
<title>cluster_EmployeeModule</title>
<polygon fill="none" stroke="#000000" stroke-dasharray="1,5" points="8,-70 8,-195 770,-195 770,-70 8,-70"/>
</g>
<g id="clust2" class="cluster">
<title>cluster_EmployeeModule_declarations</title>
<polygon fill="none" stroke="#000000" points="202,-78 202,-130 762,-130 762,-78 202,-78"/>
</g>
<g id="clust6" class="cluster">
<title>cluster_EmployeeModule_imports</title>
<polygon fill="none" stroke="#000000" points="16,-78 16,-130 194,-130 194,-78 16,-78"/>
</g>
<!-- EmployeeDetailsComponent -->
<g id="node1" class="node">
<title>EmployeeDetailsComponent</title>
<polygon fill="#ffffb3" stroke="#000000" points="753.7478,-122 576.2522,-122 576.2522,-86 753.7478,-86 753.7478,-122"/>
<text text-anchor="middle" x="665" y="-99.8" font-family="Times,serif" font-size="14.00" fill="#000000">EmployeeDetailsComponent</text>
</g>
<!-- EmployeeModule -->
<g id="node4" class="node">
<title>EmployeeModule</title>
<polygon fill="#8dd3c7" stroke="#000000" points="444.3132,-187 441.3132,-191 420.3132,-191 417.3132,-187 327.6868,-187 327.6868,-151 444.3132,-151 444.3132,-187"/>
<text text-anchor="middle" x="386" y="-164.8" font-family="Times,serif" font-size="14.00" fill="#000000">EmployeeModule</text>
</g>
<!-- EmployeeDetailsComponent&#45;&gt;EmployeeModule -->
<g id="edge1" class="edge">
<title>EmployeeDetailsComponent&#45;&gt;EmployeeModule</title>
<path fill="none" stroke="#000000" d="M665,-122.1061C665,-141.3391 665,-169 665,-169 665,-169 454.4875,-169 454.4875,-169"/>
<polygon fill="#000000" stroke="#000000" points="454.4876,-165.5001 444.4875,-169 454.4875,-172.5001 454.4876,-165.5001"/>
</g>
<!-- EmployeeListComponent -->
<g id="node2" class="node">
<title>EmployeeListComponent</title>
<polygon fill="#ffffb3" stroke="#000000" points="557.8738,-122 398.1262,-122 398.1262,-86 557.8738,-86 557.8738,-122"/>
<text text-anchor="middle" x="478" y="-99.8" font-family="Times,serif" font-size="14.00" fill="#000000">EmployeeListComponent</text>
</g>
<!-- EmployeeListComponent&#45;&gt;EmployeeModule -->
<g id="edge2" class="edge">
<title>EmployeeListComponent&#45;&gt;EmployeeModule</title>
<path fill="none" stroke="#000000" d="M421.1098,-122.1061C421.1098,-122.1061 421.1098,-140.991 421.1098,-140.991"/>
<polygon fill="#000000" stroke="#000000" points="417.6098,-140.9909 421.1098,-150.991 424.6098,-140.991 417.6098,-140.9909"/>
</g>
<!-- EmployeesPageComponent -->
<g id="node3" class="node">
<title>EmployeesPageComponent</title>
<polygon fill="#ffffb3" stroke="#000000" points="380.252,-122 209.748,-122 209.748,-86 380.252,-86 380.252,-122"/>
<text text-anchor="middle" x="295" y="-99.8" font-family="Times,serif" font-size="14.00" fill="#000000">EmployeesPageComponent</text>
</g>
<!-- EmployeesPageComponent&#45;&gt;EmployeeModule -->
<g id="edge3" class="edge">
<title>EmployeesPageComponent&#45;&gt;EmployeeModule</title>
<path fill="none" stroke="#000000" d="M354.1097,-122.1061C354.1097,-122.1061 354.1097,-140.991 354.1097,-140.991"/>
<polygon fill="#000000" stroke="#000000" points="350.6098,-140.9909 354.1097,-150.991 357.6098,-140.991 350.6098,-140.9909"/>
</g>
<!-- EmployeeRoutingModule -->
<g id="node5" class="node">
<title>EmployeeRoutingModule</title>
<polygon fill="#8dd3c7" stroke="#000000" points="185.9312,-122 182.9312,-126 161.9312,-126 158.9312,-122 24.0688,-122 24.0688,-86 185.9312,-86 185.9312,-122"/>
<text text-anchor="middle" x="105" y="-99.8" font-family="Times,serif" font-size="14.00" fill="#000000">EmployeeRoutingModule</text>
</g>
<!-- EmployeeRoutingModule&#45;&gt;EmployeeModule -->
<g id="edge4" class="edge">
<title>EmployeeRoutingModule&#45;&gt;EmployeeModule</title>
<path fill="none" stroke="#000000" d="M105,-122.1061C105,-141.3391 105,-169 105,-169 105,-169 317.7766,-169 317.7766,-169"/>
<polygon fill="#000000" stroke="#000000" points="317.7767,-172.5001 327.7766,-169 317.7766,-165.5001 317.7767,-172.5001"/>
</g>
</g>
</svg>
